/* XPM */
static char *connect_xpm[] = {
/* columns rows colors chars-per-pixel */
"24 24 177 2",
"   c black",
".  c #050500000000",
"X  c #060600000000",
"o  c #060601010000",
"O  c #070701010000",
"+  c #070702020000",
"@  c #070702020101",
"#  c gray2",
"$  c gray10",
"%  c #1D1D1D1D1D1D",
"&  c #272702020000",
"*  c #282803030101",
"=  c #292903030101",
"-  c #2A2A04040101",
";  c #31310C0C0505",
":  c #33330D0D0606",
">  c #33330E0E0606",
",  c #34340E0E0606",
"<  c gray15",
"1  c #2C2C2C2C2C2C",
"2  c #2D2D2D2D2D2D",
"3  c #4B4B12120F0F",
"4  c #4E4E15150D0D",
"5  c #4F4F16161010",
"6  c #55551B1B1010",
"7  c #56561C1C1313",
"8  c #5A5A1F1F1212",
"9  c #5E5E24241616",
"0  c #6E6E0F0F0C0C",
"q  c #727203030202",
"w  c #737302020202",
"e  c #777704040202",
"r  c #767607070303",
"t  c #797902020000",
"y  c #7C7C05050202",
"u  c #79790A0A0404",
"i  c #7D7D09090404",
"p  c #7E7E0E0E0606",
"a  c #707012120F0F",
"s  c #7B7B1C1C1414",
"d  c #7C7C1D1D1111",
"f  c gray28",
"g  c #535353535353",
"h  c #686868686868",
"j  c #808003030000",
"k  c #818104040101",
"l  c #818105050202",
"z  c #858503030101",
"x  c #868604040101",
"c  c #83830C0C0505",
"v  c #848408080404",
"b  c #858509090404",
"n  c #898906060202",
"m  c #8A8A0E0E0606",
"M  c #8D8D0A0A0404",
"N  c #868614140A0A",
"B  c #8E8E10100707",
"V  c #8A8A12120808",
"C  c #8A8A17170A0A",
"Z  c #8E8E1B1B0C0C",
"A  c #909008080303",
"S  c #90900A0A0404",
"D  c #939309090404",
"F  c #91910D0D0505",
"G  c #969608080303",
"H  c #979709090303",
"J  c #95950E0E0606",
"K  c #99990B0B0505",
"L  c #9D9D0F0F0606",
"P  c #9F9F0D0D0505",
"I  c #979715150909",
"U  c #969617170A0A",
"Y  c #92921F1F0E0E",
"T  c #989813130808",
"R  c #9D9D12120808",
"E  c #9B9B19190B0B",
"W  c #98981F1F0E0E",
"Q  c #9B9B1C1C0D0D",
"!  c #9F9F1C1C0C0C",
"~  c #838323231515",
"^  c #858525251414",
"/  c #929222220F0F",
"(  c #91912F2F1919",
")  c #989827271212",
"_  c #9B9B26261111",
"`  c #9F9F26261111",
"'  c #9B9B29291414",
"]  c #9E9E2D2D1414",
"[  c #929230301A1A",
"{  c #A2A20D0D0505",
"}  c #A2A20F0F0606",
"|  c #A3A30E0E0606",
" . c #A3A314140909",
".. c #A6A613130909",
"X. c #A3A319190B0B",
"o. c #AAAA17170B0B",
"O. c #ACAC18180D0D",
"+. c #AEAE19190F0F",
"@. c #AEAE1A1A0E0E",
"#. c #AEAE1A1A0F0F",
"$. c #AAAA1E1E1313",
"%. c #A3A320200E0E",
"&. c #A2A223231010",
"*. c #A0A02B2B1313",
"=. c #ACAC29291E1E",
"-. c #A4A430301616",
";. c #A5A531311616",
":. c #B0B022221515",
">. c #B3B325251919",
",. c #B6B626261919",
"<. c #B7B726261A1A",
"1. c #B7B728281A1A",
"2. c #B7B729291B1B",
"3. c #B8B827271A1A",
"4. c #B2B230302020",
"5. c #BDBD41413535",
"6. c #BFBF42423535",
"7. c #BEBE51514646",
"8. c #BBBB62625555",
"9. c #C1C142423636",
"0. c #C0C044443737",
"q. c #C3C344443737",
"w. c #C3C345453737",
"e. c #C4C444443737",
"r. c #C3C357574848",
"t. c #C9C95B5B5050",
"y. c #CCCC5D5D5050",
"u. c #CECE5D5D5050",
"i. c #CECE5E5E5050",
"p. c #CECE5F5F5050",
"a. c #C0C067675656",
"s. c #CCCC60605151",
"d. c #CECE60605050",
"f. c #C3C371716060",
"g. c #C5C573736161",
"h. c #C9C971716666",
"j. c #CFCF73736666",
"k. c #CDCD75756767",
"l. c #CACA7B7B6F6F",
"z. c #CDCD7E7E7070",
"x. c #D5D574746767",
"c. c #D6D674746767",
"v. c #D4D477776868",
"b. c #D7D775756868",
"n. c #D6D677776868",
"m. c #D7D776766868",
"M. c #D7D777776868",
"N. c #CCCC86867878",
"B. c #CFCF87877A7A",
"V. c #D6D687877C7C",
"C. c #D8D88B8B7D7D",
"Z. c #DADA89897D7D",
"A. c #DDDD8A8A7D7D",
"S. c #DDDD8B8B7D7D",
"D. c #DEDE8B8B7D7D",
"F. c #DFDF8B8B7D7D",
"G. c #ACACACACACAC",
"H. c #D9D99B9B9090",
"J. c #DBDB9D9D9191",
"K. c #DFDF9C9C9090",
"L. c #DBDBA2A29696",
"P. c #DCDCA3A39797",
"I. c #DFDFAAAAA1A1",
"U. c #E0E09D9D9191",
"Y. c #E2E29D9D9191",
"T. c #E3E39D9D9191",
"R. c #E2E29E9E9191",
"E. c #E4E49E9E9191",
"W. c #E1E1ABABA1A1",
"Q. c #E3E3ABABA1A1",
"!. c #E3E3ADADA2A2",
"~. c #E5E5ACACA2A2",
"^. c #E5E5ADADA2A2",
"/. c #E5E5B7B7ADAD",
"(. c gray78",
"). c gray100",
"_. c None",
/* pixels */
"_._._._._._._._._._._._._._._._._._._._._._._._.",
"_._._._._._._._._._._._._._._._._._._._._._._._.",
"_._._._._._._.                _._._._._._._._._.",
"_._._._._._.                    _._._._._._._._.",
"_._._._._.      O 9 [ -.-.( 8 O % _._._._._._._.",
"_._._._.      , ] g.P././.L.f.' , 1 _._._._._._.",
"_._._.      > *.B.W.~.~.~.Q.I.N.) ; g _._._._._.",
"_._._.    O ) a.H.R.R.E.R.R.K.H.8./ O G._._._._.",
"_._._.    6 *.l.C.S.F.F.F.A.Z.V.l.W 6 h )._._._.",
"_._._.    ^ %.k.n.n.M.M.m.m.x.x.h.Q ~ < )._._._.",
"_._._.    / %.r.s.s.s.d.i.i.t.t.7.E C # )._._._.",
"_._._.    Z ! 4.6.w.w.w.q.9.5.5.=.I N # )._._._.",
"_._._.    d U X.:.<.<.<.<.,.>.$.R B s < )._._._.",
"_._._.    4 V I  .o.+.+.+.+...L S c 5 h )._._._.",
"_._._._.  O p m J R } } { { K M v u O (.)._._._.",
"_._._._._.$ - i b M G H G M n k r & h ).)._._._.",
"_._._._._._.1 - r y j x z j t w & f ).)._._._._.",
"_._._._._._._.g O 3 0 w w a 3 O h ).)._._._._._.",
"_._._._._._._._.G.h < # # < h (.).)._._._._._._.",
"_._._._._._._._._.).).).).).).).)._._._._._._._.",
"_._._._._._._._._._._._._._._._._._._._._._._._.",
"_._._._._._._._._._._._._._._._._._._._._._._._.",
"_._._._._._._._._._._._._._._._._._._._._._._._.",
"_._._._._._._._._._._._._._._._._._._._._._._._."
};
