/* XPM */
static char *stop_xpm[] = {
/* columns rows colors chars-per-pixel */
"24 24 29 1",
"  c black",
". c #737373737272",
"X c #7E7E7E7E7D7D",
"o c #848484848383",
"O c #858584848383",
"+ c #888888888787",
"@ c #919190908E8E",
"# c #A4A4A4A4A3A3",
"$ c #A6A6A5A5A2A2",
"% c #A6A6A5A5A4A4",
"& c #A8A8A7A7A6A6",
"* c #AAAAA9A9A7A7",
"= c #AEAEADADA9A9",
"- c #AFAFAEAEACAC",
"; c #B2B2B0B0ADAD",
": c #B5B5B3B3B0B0",
"> c #B5B5B4B4B3B3",
", c #BBBBBABAB7B7",
"< c #BFBFBDBDBABA",
"1 c #C0C0BFBFBEBE",
"2 c #C3C3C1C1BEBE",
"3 c #CACACACAC8C8",
"4 c #D1D1CFCFCCCC",
"5 c #D4D4D3D3D2D2",
"6 c #D7D7D5D5D3D3",
"7 c #D9D9D8D8D6D6",
"8 c #DEDEDDDDDBDB",
"9 c gray100",
"0 c None",
/* pixels */
"000000000000000000000000",
"000000000000000000000000",
"000000000000000000000000",
"000000000000000000000000",
"0000              000000",
"0000              900000",
"0000  .o+++++++++ 900000",
"0000  X&######### 900000",
"0000  X#>>>>>>>>> 900000",
"0000  o&111111111 900000",
"0000  @;333333333 900000",
"0000  @;333333333 900000",
"0000  #,555555555 900000",
"0000  #,555555555 900000",
"0000  =<666666666 900000",
"0000  ;2777777777 900000",
"0000  >4888888888 900000",
"0000              900000",
"0000 9999999999999900000",
"000000000000000000000000",
"000000000000000000000000",
"000000000000000000000000",
"000000000000000000000000",
"000000000000000000000000"
};
